<?xml version="1.0" encoding="UTF-8"?>
<svg width="11px" height="18px" viewBox="0 0 11 18" version="1.1" xmlns="http://www.w3.org/2000/svg" xmlns:xlink="http://www.w3.org/1999/xlink">
    <title>Path</title>
    <g id="Desktop-View" stroke="none" stroke-width="1" fill="none" fill-rule="evenodd">
        <g id="Artboard" transform="translate(-50.000000, -47.000000)" fill="#828B94" fill-rule="nonzero">
            <g id="Group-11" transform="translate(30.000000, 30.000000)">
                <path d="M20.4029851,27.0746269 L28.0597015,34.5970149 C28.5970149,35.1343284 29.4029851,35.1343284 29.9402985,34.5970149 C29.9402985,34.5970149 29.9402985,34.5970149 29.9402985,34.5970149 C30.4776119,34.0597015 30.4776119,33.2537313 29.9402985,32.7164179 L23.358209,26 L29.9402985,19.2835821 C30.4776119,18.7462687 30.4776119,17.9402985 29.9402985,17.4029851 C29.6716418,17.1343284 29.4029851,17 29,17 C28.5970149,17 28.3283582,17.1343284 28.0597015,17.4029851 L20.4029851,24.9253731 C19.8656716,25.5970149 19.8656716,26.4029851 20.4029851,27.0746269 C20.4029851,26.9402985 20.4029851,26.9402985 20.4029851,27.0746269 Z" id="Path"></path>
            </g>
        </g>
    </g>
</svg>