<?xml version="1.0" encoding="UTF-8"?>
<svg width="123px" height="28px" viewBox="0 0 123 28" version="1.1" xmlns="http://www.w3.org/2000/svg" xmlns:xlink="http://www.w3.org/1999/xlink">
    <title>brand</title>
    <g id="Page-1" stroke="none" stroke-width="1" fill="none" fill-rule="evenodd">
        <g id="Default-Mode" transform="translate(-614.000000, -21.000000)" fill-rule="nonzero">
            <g id="brand" transform="translate(614.369673, 21.620739)">
                <path d="M8.29012784,13.7997159 L12.409446,13.7997159 L14.1601562,16.034446 L16.4566761,18.6708097 L19.9889915,23.0269886 L15.3753551,23.0269886 L12.9037642,20.0713778 L11.4414062,17.9705256 L8.29012784,13.7997159 Z M20.1331676,10.8338068 C20.1331676,13.1543561 19.6869081,15.1213305 18.7943892,16.7347301 C17.9018703,18.3481297 16.6952533,19.5736269 15.1745384,20.4112216 C13.6538234,21.2488163 11.9494555,21.6676136 10.0614347,21.6676136 C8.1665483,21.6676136 6.46046402,21.2453835 4.94318182,20.4009233 C3.42589962,19.5564631 2.22271544,18.3292495 1.33362926,16.7192827 C0.444543087,15.1093158 0,13.1474905 0,10.8338068 C0,8.51325758 0.444543087,6.54628314 1.33362926,4.93288352 C2.22271544,3.3194839 3.42589962,2.09398674 4.94318182,1.25639205 C6.46046402,0.418797348 8.1665483,1.42108547e-14 10.0614347,1.42108547e-14 C11.9494555,1.42108547e-14 13.6538234,0.418797348 15.1745384,1.25639205 C16.6952533,2.09398674 17.9018703,3.3194839 18.7943892,4.93288352 C19.6869081,6.54628314 20.1331676,8.51325758 20.1331676,10.8338068 Z M14.9222301,10.8338068 C14.9222301,9.46070076 14.7282789,8.30042614 14.3403764,7.35298295 C13.952474,6.40553977 13.396366,5.68809186 12.6720526,5.2006392 C11.9477391,4.71318655 11.0775331,4.46946023 10.0614347,4.46946023 C9.0522017,4.46946023 8.18371212,4.71318655 7.45596591,5.2006392 C6.7282197,5.68809186 6.17039536,6.40553977 5.7824929,7.35298295 C5.39459044,8.30042614 5.2006392,9.46070076 5.2006392,10.8338068 C5.2006392,12.2069129 5.39459044,13.3671875 5.7824929,14.3146307 C6.17039536,15.2620739 6.7282197,15.9795218 7.45596591,16.4669744 C8.18371212,16.9544271 9.0522017,17.1981534 10.0614347,17.1981534 C11.0775331,17.1981534 11.9477391,16.9544271 12.6720526,16.4669744 C13.396366,15.9795218 13.952474,15.2620739 14.3403764,14.3146307 C14.7282789,13.3671875 14.9222301,12.2069129 14.9222301,10.8338068 Z" id="Shape" fill-opacity="0.85" fill="#000000"></path>
                <path d="M33.3355824,14.5514915 L33.3355824,5.56107955 L38.3611506,5.56107955 L38.3611506,21.3792614 L33.5621449,21.3792614 L33.5621449,18.4339489 L33.3973722,18.4339489 C33.0472301,19.4019886 32.4516454,20.1692116 31.6106179,20.7356179 C30.7695904,21.3020241 29.7552083,21.5852273 28.5674716,21.5852273 C27.4895833,21.5852273 26.5421402,21.3380682 25.725142,20.84375 C24.9081439,20.3494318 24.2730824,19.6577296 23.8199574,18.7686435 C23.3668324,17.8795573 23.1368371,16.8377131 23.1299716,15.6431108 L23.1299716,5.56107955 L28.1658381,5.56107955 L28.1658381,14.6544744 C28.1727036,15.5126657 28.3992661,16.1889205 28.8455256,16.6832386 C29.291785,17.1775568 29.8993845,17.4247159 30.6683239,17.4247159 C31.1695076,17.4247159 31.6209162,17.313151 32.0225497,17.0900213 C32.4241832,16.8668916 32.7434304,16.5407789 32.9802912,16.1116832 C33.217152,15.6825876 33.3355824,15.1625237 33.3355824,14.5514915 Z" id="Path" fill-opacity="0.85" fill="#000000"></path>
                <path d="M48.9580966,21.6779119 C47.3035038,21.6779119 45.8771899,21.3500829 44.6791548,20.6944247 C43.4811198,20.0387666 42.5611387,19.1016217 41.9192116,17.8829901 C41.2772846,16.6643584 40.956321,15.2140152 40.956321,13.5319602 C40.956321,11.897964 41.2790009,10.4682173 41.9243608,9.24272017 C42.5697206,8.01722301 43.4794034,7.0629143 44.6534091,6.37979403 C45.8274148,5.69667377 47.2108191,5.35511364 48.8036222,5.35511364 C49.9295691,5.35511364 50.9593987,5.53018466 51.8931108,5.8803267 C52.8268229,6.23046875 53.6335227,6.74881629 54.3132102,7.43536932 C54.9928977,8.12192235 55.5215436,8.96809896 55.8991477,9.97389915 C56.2767519,10.9796993 56.465554,12.131392 56.465554,13.4289773 L56.465554,14.6853693 L42.7173295,14.6853693 L42.7173295,11.7606534 L51.7798295,11.7606534 C51.772964,11.225142 51.6459517,10.7479877 51.3987926,10.3291903 C51.1516335,9.91039299 50.8135062,9.58256392 50.3844105,9.34570313 C49.9553149,9.10884233 49.4627131,8.99041193 48.9066051,8.99041193 C48.3436316,8.99041193 47.8390152,9.11570786 47.3927557,9.36629972 C46.9464962,9.61689157 46.5929214,9.95673532 46.3320312,10.385831 C46.0711411,10.8149266 45.9338305,11.3006629 45.9200994,11.8430398 L45.9200994,14.8192472 C45.9200994,15.464607 46.0471117,16.0292969 46.3011364,16.5133168 C46.555161,16.9973366 46.9156013,17.3732244 47.3824574,17.6409801 C47.8493134,17.9087358 48.4054214,18.0426136 49.0507812,18.0426136 C49.4970407,18.0426136 49.902107,17.9808239 50.2659801,17.8572443 C50.6298532,17.7336648 50.9422348,17.5517282 51.203125,17.3114347 C51.4640152,17.0711411 51.6596828,16.7759233 51.7901278,16.4257813 L56.4140625,16.5596591 C56.2218277,17.5963542 55.8013139,18.497455 55.1525213,19.2629616 C54.5037287,20.0284683 53.6541193,20.6223366 52.6036932,21.0445668 C51.553267,21.4667969 50.3380682,21.6779119 48.9580966,21.6779119 Z" id="Path" fill-opacity="0.85" fill="#000000"></path>
                <path d="M61.6970881,27.3110795 C61.0929214,27.3110795 60.5230824,27.2647372 59.987571,27.1720526 C59.4520597,27.0793679 58.9920691,26.9575047 58.6075994,26.8064631 L59.7198153,23.1505682 C60.2141335,23.3153409 60.6621094,23.4114583 61.0637429,23.4389205 C61.4653764,23.4663826 61.8120857,23.4028764 62.1038707,23.248402 C62.3956558,23.0939276 62.6205019,22.8210227 62.7784091,22.4296875 L62.9740767,21.9559659 L57.3512074,5.56107955 L62.6239347,5.56107955 L65.5383523,16.8480114 L65.703125,16.8480114 L68.6587358,5.56107955 L73.962358,5.56107955 L67.9996449,22.8931108 C67.7112926,23.7581676 67.3045099,24.5219579 66.7792969,25.1844815 C66.2540838,25.8470052 65.5778291,26.3670691 64.7505327,26.7446733 C63.9232363,27.1222775 62.9054214,27.3110795 61.6970881,27.3110795 Z" id="Path" fill-opacity="0.85" fill="#000000"></path>
                <path d="M75.8881392,21.3792614 L75.8881392,0.288352273 L84.6828835,0.288352273 C86.2619555,0.288352273 87.5852865,0.511482008 88.6528764,0.957741477 C89.7204664,1.40400095 90.5237334,2.0287642 91.0626776,2.83203125 C91.6016217,3.6352983 91.8710938,4.56557765 91.8710938,5.62286932 C91.8710938,6.42613636 91.7028883,7.1418679 91.3664773,7.77006392 C91.0300663,8.39825994 90.566643,8.91832386 89.9762074,9.33025568 C89.3857718,9.7421875 88.7026515,10.0305398 87.9268466,10.1953125 L87.9268466,10.4012784 C88.7781723,10.4424716 89.565992,10.6724669 90.2903054,11.0912642 C91.0146188,11.5100616 91.5964725,12.0919152 92.0358665,12.8368253 C92.4752604,13.5817353 92.6949574,14.4622396 92.6949574,15.4783381 C92.6949574,16.6111506 92.4066051,17.6220999 91.8299006,18.5111861 C91.253196,19.4002723 90.4190341,20.1005563 89.3274148,20.6120384 C88.2357955,21.1235204 86.9107481,21.3792614 85.3522727,21.3792614 L75.8881392,21.3792614 Z M80.9857955,17.2702415 L84.1370739,17.2702415 C85.2424242,17.2702415 86.057706,17.0608428 86.582919,16.6420455 C87.1081321,16.2232481 87.3707386,15.639678 87.3707386,14.8913352 C87.3707386,14.3489583 87.2437263,13.8803859 86.9897017,13.4856179 C86.7356771,13.0908499 86.3752367,12.7853338 85.9083807,12.5690696 C85.4415246,12.3528054 84.8819839,12.2446733 84.2297585,12.2446733 L80.9857955,12.2446733 L80.9857955,17.2702415 Z M80.9857955,8.95951705 L83.8075284,8.95951705 C84.3636364,8.95951705 84.8579545,8.86683239 85.290483,8.68146307 C85.7230114,8.49609375 86.0611387,8.22833807 86.3048651,7.87819602 C86.5485914,7.52805398 86.6704545,7.10582386 86.6704545,6.61150568 C86.6704545,5.90435606 86.4198627,5.34824811 85.918679,4.94318182 C85.4174953,4.53811553 84.7412405,4.33558239 83.8899148,4.33558239 L80.9857955,4.33558239 L80.9857955,8.95951705 Z" id="Shape" fill="#4242CB"></path>
                <path d="M99.6051136,21.647017 C98.5958807,21.647017 97.7016454,21.4770952 96.9224077,21.1372514 C96.14317,20.7974077 95.528705,20.2824929 95.0790128,19.5925071 C94.6293205,18.9025213 94.4044744,18.0357481 94.4044744,16.9921875 C94.4044744,16.1133996 94.5589489,15.3719223 94.8678977,14.7677557 C95.1768466,14.163589 95.6025095,13.6727036 96.1448864,13.2950994 C96.6872633,12.9174953 97.3120265,12.6308594 98.0191761,12.4351918 C98.7263258,12.2395241 99.4815341,12.1073627 100.284801,12.0387074 C101.184186,11.956321 101.908499,11.8687855 102.457741,11.7761009 C103.006984,11.6834162 103.406901,11.5495384 103.657493,11.3744673 C103.908085,11.1993963 104.033381,10.9505208 104.033381,10.6278409 L104.033381,10.5763494 C104.033381,10.0477036 103.851444,9.63920455 103.487571,9.35085227 C103.123698,9.0625 102.632812,8.91832386 102.014915,8.91832386 C101.348958,8.91832386 100.813447,9.0625 100.408381,9.35085227 C100.003314,9.63920455 99.745857,10.0374053 99.6360085,10.5454545 L94.9914773,10.3806818 C95.1287879,9.41950758 95.4840791,8.55959991 96.0573509,7.80095881 C96.6306226,7.04231771 97.4201586,6.44501657 98.4259588,6.0090554 C99.431759,5.57309422 100.641809,5.35511364 102.056108,5.35511364 C103.065341,5.35511364 103.99562,5.47354403 104.846946,5.71040483 C105.698272,5.94726563 106.439749,6.29054214 107.071378,6.74023438 C107.703007,7.18992661 108.192176,7.74088542 108.538885,8.3931108 C108.885594,9.04533617 109.058949,9.79024621 109.058949,10.6278409 L109.058949,21.3792614 L104.321733,21.3792614 L104.321733,19.1754261 L104.198153,19.1754261 C103.916667,19.7109375 103.557943,20.1640625 103.121982,20.5348011 C102.68602,20.9055398 102.174538,21.1835938 101.587536,21.3689631 C101.000533,21.5543324 100.339725,21.647017 99.6051136,21.647017 Z M101.160156,18.3515625 C101.702533,18.3515625 102.191702,18.241714 102.627663,18.022017 C103.063625,17.8023201 103.41205,17.4985204 103.67294,17.1106179 C103.93383,16.7227154 104.064276,16.2713068 104.064276,15.756392 L104.064276,14.2528409 C103.920099,14.3283617 103.746745,14.397017 103.544212,14.4588068 C103.341679,14.5205966 103.120265,14.5789536 102.879972,14.6338778 C102.639678,14.6888021 102.392519,14.7368608 102.138494,14.778054 C101.88447,14.8192472 101.640743,14.8570076 101.407315,14.8913352 C100.933594,14.9668561 100.530244,15.0835701 100.197266,15.2414773 C99.8642874,15.3993845 99.6102628,15.603634 99.4351918,15.8542259 C99.2601207,16.1048177 99.1725852,16.4017519 99.1725852,16.7450284 C99.1725852,17.2668087 99.3596709,17.6650095 99.7338423,17.9396307 C100.108014,18.2142519 100.583452,18.3515625 101.160156,18.3515625 Z" id="Shape" fill="#4242CB"></path>
                <path d="M112.127841,21.3792614 L112.127841,5.56107955 L117.019531,5.56107955 L117.019531,8.44460227 L117.184304,8.44460227 C117.472656,7.40104167 117.942945,6.62352036 118.59517,6.11203835 C119.247396,5.60055634 120.006037,5.34481534 120.871094,5.34481534 C121.104522,5.34481534 121.344815,5.36026278 121.591974,5.39115767 C121.839134,5.42205256 122.069129,5.46839489 122.28196,5.53018466 L122.28196,9.90696023 C122.041667,9.82457386 121.727569,9.75935133 121.339666,9.71129261 C120.951764,9.6632339 120.606771,9.63920455 120.304688,9.63920455 C119.707386,9.63920455 119.170159,9.771366 118.693004,10.0356889 C118.21585,10.3000118 117.841679,10.6673177 117.57049,11.1376065 C117.299302,11.6078954 117.163707,12.1588542 117.163707,12.790483 L117.163707,21.3792614 L112.127841,21.3792614 Z" id="Path" fill="#4242CB"></path>
            </g>
        </g>
    </g>
</svg>