<svg width="18" height="18" viewBox="0 0 18 18" fill="none" xmlns="http://www.w3.org/2000/svg">
<path fill-rule="evenodd" clip-rule="evenodd" d="M0.9 10.8C1.39706 10.8 1.8 11.203 1.8 11.7V15.3C1.8 15.5387 1.89482 15.7677 2.0636 15.9364C2.23239 16.1052 2.46131 16.2 2.7 16.2H15.3C15.5387 16.2 15.7676 16.1052 15.9364 15.9364C16.1052 15.7677 16.2 15.5387 16.2 15.3V11.7C16.2 11.203 16.6029 10.8 17.1 10.8C17.5971 10.8 18 11.203 18 11.7V15.3C18 16.0161 17.7155 16.7029 17.2092 17.2092C16.7028 17.7156 16.0161 18 15.3 18H2.7C1.98392 18 1.29716 17.7156 0.790812 17.2092C0.284463 16.7029 0 16.0161 0 15.3V11.7C0 11.203 0.402944 10.8 0.9 10.8Z" fill="#4242C3"/>
<path fill-rule="evenodd" clip-rule="evenodd" d="M8.36321 0.263604C8.71468 -0.087868 9.28453 -0.087868 9.63601 0.263604L14.136 4.7636C14.4875 5.11508 14.4875 5.68492 14.136 6.0364C13.7845 6.38787 13.2147 6.38787 12.8632 6.0364L8.99961 2.17279L5.13601 6.0364C4.78453 6.38787 4.21469 6.38787 3.86321 6.0364C3.51174 5.68492 3.51174 5.11508 3.86321 4.7636L8.36321 0.263604Z" fill="#4242C3"/>
<path fill-rule="evenodd" clip-rule="evenodd" d="M8.99961 0C9.49667 0 9.89961 0.402944 9.89961 0.9V11.7C9.89961 12.1971 9.49667 12.6 8.99961 12.6C8.50255 12.6 8.09961 12.1971 8.09961 11.7V0.9C8.09961 0.402944 8.50255 0 8.99961 0Z" fill="#4242C3"/>
</svg>
